<?xml version="1.0" encoding="UTF-8" standalone="no"?><!DOCTYPE svg PUBLIC "-//W3C//DTD SVG 1.1//EN" " "><svg width="100%" height="100%" viewBox="0 0 7 7" version="1.1" xmlns="http://www.w3.org/2000/svg" xml:space="preserve" style="fill-rule:evenodd;clip-rule:evenodd;stroke-linejoin:round;stroke-miterlimit:2;"><path d="M2.534,0.373c0.657,-0.645 2.114,-0.436 2.946,0.49c0.785,0.875 0.982,2.437 0.497,2.912l-2.523,2.465l-3.454,-0l-0,-3.384l2.534,-2.483Zm0.168,0.171c0,0 0,0 0,-0c0.221,-0.216 0.551,-0.309 0.91,-0.304c0.581,0.009 1.237,0.28 1.689,0.783c0.435,0.484 0.672,1.197 0.697,1.784c0.015,0.343 -0.032,0.643 -0.189,0.797c0,-0 -2.453,2.396 -2.453,2.396c-0,0 -3.116,0 -3.116,0c-0,0 -0,-3.043 -0,-3.043c0,-0 2.462,-2.413 2.462,-2.413Z" style="fill:#bfbfbf;"/><path d="M4.599,3.716c0.555,-0.555 0.555,-1.457 -0,-2.012c-0.556,-0.555 -1.457,-0.555 -2.012,0l-1.009,1.009c-0.555,0.555 -0.555,1.456 0,2.012c0.555,0.555 1.457,0.555 2.012,-0l1.009,-1.009Zm-0.142,-0.142l-1.009,1.009c-0.477,0.477 -1.251,0.477 -1.729,0c-0.477,-0.477 -0.477,-1.252 0,-1.729c0,0 1.009,-1.009 1.009,-1.009c0.477,-0.477 1.252,-0.477 1.729,0c0.477,0.478 0.477,1.252 0,1.729Z" style="fill:#bfbfbf;"/><circle cx="2.646" cy="3.657" r="0.776" style="fill:#bfbfbf;"/></svg>